<svg xmlns="http://www.w3.org/2000/svg" viewBox="0 0 800 600">
  <rect width="800" height="600" fill="#191B1F"/>
  <g stroke="#72767C" stroke-width="1" opacity="0.35">
    <line x1="0" y1="120" x2="800" y2="120"/>
    <line x1="0" y1="480" x2="800" y2="480"/>
  </g>
  <g opacity="0.6"><line x1="250" y1="200" x2="250" y2="400" stroke="#72767C" stroke-width="1"/><line x1="290" y1="200" x2="290" y2="400" stroke="#72767C" stroke-width="1"/><line x1="330" y1="200" x2="330" y2="400" stroke="#72767C" stroke-width="1"/><line x1="370" y1="200" x2="370" y2="400" stroke="#72767C" stroke-width="1"/><line x1="410" y1="200" x2="410" y2="400" stroke="#72767C" stroke-width="1"/><line x1="450" y1="200" x2="450" y2="400" stroke="#72767C" stroke-width="1"/><line x1="490" y1="200" x2="490" y2="400" stroke="#72767C" stroke-width="1"/><line x1="530" y1="200" x2="530" y2="400" stroke="#72767C" stroke-width="1"/><line x1="570" y1="200" x2="570" y2="400" stroke="#72767C" stroke-width="1"/><line x1="250" y1="200" x2="570" y2="200" stroke="#72767C" stroke-width="1"/><line x1="250" y1="240" x2="570" y2="240" stroke="#72767C" stroke-width="1"/><line x1="250" y1="280" x2="570" y2="280" stroke="#72767C" stroke-width="1"/><line x1="250" y1="320" x2="570" y2="320" stroke="#72767C" stroke-width="1"/><line x1="250" y1="360" x2="570" y2="360" stroke="#72767C" stroke-width="1"/><line x1="250" y1="400" x2="570" y2="400" stroke="#72767C" stroke-width="1"/></g><rect x="330" y="260" width="140" height="80" fill="none" stroke="#F5C400" stroke-width="3"/>
  <text x="60" y="540" font-family="Arial, sans-serif" font-size="20" letter-spacing="2" fill="#E8E9E7" font-weight="bold">NEW EQUIPMENT</text>
  <text x="60" y="70" font-family="Arial, sans-serif" font-size="12" letter-spacing="4" fill="#F5C400">INDUSTRIAL</text>
</svg>